<svg width="971" height="48" viewBox="0 0 971 48" fill="none" xmlns="http://www.w3.org/2000/svg">
<path fill-rule="evenodd" clip-rule="evenodd" d="M327.433 21.7499C327.571 21.5108 327.489 21.205 327.25 21.067C327.011 20.929 326.705 21.011 326.567 21.2502L313.876 43.248C312.536 45.5697 310.06 47.0001 307.379 47.0001H293C292.998 47.0001 292.997 47.0001 292.995 47.0001L1 47.0001C0.723858 47.0001 0.5 47.2239 0.5 47.5001C0.5 47.7762 0.723858 48.0001 1 48.0001H293L295 48.0001C295.002 48.0001 295.003 48.0001 295.005 48.0001H307.379C310.417 48.0001 313.224 46.379 314.742 43.7477L327.433 21.7499Z" fill="url(#paint0_linear_123_122517)"/>
<path d="M356.621 0.916036L350.066 11.5647C349.923 11.7972 350.09 12.0966 350.363 12.0966H354.668C354.787 12.0966 354.899 12.035 354.963 11.9335L361.663 1.28482C361.81 1.05243 361.643 0.75 361.368 0.75H356.918C356.797 0.75 356.684 0.812852 356.621 0.916036Z" fill="url(#paint1_linear_123_122517)" fill-opacity="0.72"/>
<path d="M347.707 0.910246L340.86 11.5589C340.711 11.7911 340.878 12.0966 341.154 12.0966H345.752C345.873 12.0966 345.986 12.0337 346.049 11.9306L352.604 1.2819C352.747 1.04939 352.58 0.75 352.307 0.75H348C347.881 0.75 347.771 0.810372 347.707 0.910246Z" fill="url(#paint2_linear_123_122517)" fill-opacity="0.72"/>
<path d="M338.435 0.916036L331.88 11.5647C331.737 11.7972 331.904 12.0966 332.177 12.0966H336.48C336.601 12.0966 336.713 12.0341 336.777 11.9315L343.377 1.2828C343.521 1.05033 343.354 0.75 343.08 0.75H338.732C338.611 0.75 338.499 0.812852 338.435 0.916036Z" fill="url(#paint3_linear_123_122517)" fill-opacity="0.72"/>
<path fill-rule="evenodd" clip-rule="evenodd" d="M330.001 17.5H331.634H354.133H968.634C968.91 17.5 969.134 17.2761 969.134 17C969.134 16.7239 968.91 16.5 968.634 16.5H353.466L352.726 15.3906C352.355 14.8342 351.731 14.5 351.062 14.5H330.668C330.334 14.5 330.021 14.6671 329.836 14.9453L329.169 15.9453C328.726 16.6099 329.202 17.5 330.001 17.5Z" fill="url(#paint4_linear_123_122517)" fill-opacity="0.3"/>
<defs>
<linearGradient id="paint0_linear_123_122517" x1="0.838817" y1="48.5025" x2="327.944" y2="48.5024" gradientUnits="userSpaceOnUse">
<stop stop-color="#BAFFCE" stop-opacity="0.24"/>
<stop offset="0.515625" stop-color="#BAFFCE" stop-opacity="0.6"/>
<stop offset="1" stop-color="#BAFFCE" stop-opacity="0.24"/>
</linearGradient>
<linearGradient id="paint1_linear_123_122517" x1="349.869" y1="12.0966" x2="362" y2="12.0966" gradientUnits="userSpaceOnUse">
<stop stop-color="#7BFF90"/>
<stop offset="0.151042" stop-color="#7BCFFF"/>
<stop offset="1" stop-color="#9D7BFF"/>
</linearGradient>
<linearGradient id="paint2_linear_123_122517" x1="340.647" y1="12.0966" x2="352.932" y2="12.0966" gradientUnits="userSpaceOnUse">
<stop stop-color="#7BFF90"/>
<stop offset="0.151042" stop-color="#7BCFFF"/>
<stop offset="1" stop-color="#9D7BFF"/>
</linearGradient>
<linearGradient id="paint3_linear_123_122517" x1="331.683" y1="12.0966" x2="343.707" y2="12.0966" gradientUnits="userSpaceOnUse">
<stop stop-color="#7BFF90"/>
<stop offset="0.151042" stop-color="#7BCFFF"/>
<stop offset="1" stop-color="#9D7BFF"/>
</linearGradient>
<linearGradient id="paint4_linear_123_122517" x1="328.49" y1="17.7513" x2="971.907" y2="15.8231" gradientUnits="userSpaceOnUse">
<stop offset="0.15625" stop-color="#BAFFCE"/>
<stop offset="1" stop-color="#BAFFCD" stop-opacity="0"/>
</linearGradient>
</defs>
</svg>
