<svg width="65" height="56" viewBox="0 0 65 56" fill="none" xmlns="http://www.w3.org/2000/svg">
<mask id="mask0_126_168278" style="mask-type:alpha" maskUnits="userSpaceOnUse" x="0" y="0" width="65" height="56">
<path fill-rule="evenodd" clip-rule="evenodd" d="M51.4583 0.916992C58.9372 0.916992 65 6.97982 65 14.4587V41.542C65 49.0209 58.9372 55.0837 51.4583 55.0837H39.2708H23.0208H13.5417C6.06281 55.0837 0 49.0209 0 41.542V37.4795V32.8017C0 29.0769 0.96022 25.4151 2.78798 22.1697L10.8729 7.81366C13.2724 3.5531 17.7823 0.916992 22.6721 0.916992H23.0208H39.2708H51.4583Z" fill="white"/>
</mask>
<g mask="url(#mask0_126_168278)">
<path fill-rule="evenodd" clip-rule="evenodd" d="M51.4583 0.916992C58.9372 0.916992 65 6.97982 65 14.4587V41.542C65 49.0209 58.9372 55.0837 51.4583 55.0837H39.2708H23.0208H13.5417C6.06281 55.0837 0 49.0209 0 41.542V37.4795V32.8017C0 29.0769 0.96022 25.4151 2.78798 22.1697L10.8729 7.81366C13.2724 3.5531 17.7823 0.916992 22.6721 0.916992H23.0208H39.2708H51.4583Z" fill="url(#paint0_linear_126_168278)" fill-opacity="0.2"/>
<path d="M2.78795 22.1694L3.96786 22.8339L2.78795 22.1694ZM10.8729 7.81333L9.69297 7.14883L10.8729 7.81333ZM63.6458 14.4584C63.6458 7.72737 58.1893 2.27083 51.4583 2.27083V-0.4375C59.6851 -0.4375 66.3542 6.2316 66.3542 14.4584H63.6458ZM63.6458 41.5417V14.4584H66.3542V41.5417H63.6458ZM51.4583 53.7292C58.1893 53.7292 63.6458 48.2727 63.6458 41.5417H66.3542C66.3542 49.7684 59.6851 56.4375 51.4583 56.4375V53.7292ZM39.2708 53.7292H51.4583V56.4375H39.2708V53.7292ZM23.0208 53.7292H39.2708V56.4375H23.0208V53.7292ZM23.0208 56.4375H13.5417V53.7292H23.0208V56.4375ZM13.5417 56.4375C5.3149 56.4375 -1.35419 49.7684 -1.35419 41.5417H1.35414C1.35414 48.2727 6.81067 53.7292 13.5417 53.7292V56.4375ZM-1.35419 41.5417V37.4792H1.35414V41.5417H-1.35419ZM-1.35419 37.4792V32.8014H1.35414V37.4792H-1.35419ZM-1.35419 32.8014C-1.35419 28.8438 -0.333958 24.9532 1.60803 21.5049L3.96786 22.8339C2.25434 25.8765 1.35414 29.3094 1.35414 32.8014H-1.35419ZM1.60803 21.5049L9.69297 7.14883L12.0528 8.47783L3.96786 22.8339L1.60803 21.5049ZM9.69297 7.14883C12.3324 2.46221 17.2934 -0.4375 22.6721 -0.4375V2.27083C18.2713 2.27083 14.2123 4.64332 12.0528 8.47783L9.69297 7.14883ZM22.6721 -0.4375H23.0208V2.27083H22.6721V-0.4375ZM39.2708 2.27083H23.0208V-0.4375H39.2708V2.27083ZM51.4583 2.27083H39.2708V-0.4375H51.4583V2.27083Z" fill="url(#paint1_linear_126_168278)" fill-opacity="0.2"/>
<g filter="url(#filter0_f_126_168278)">
<path d="M61.6592 28.0315C61.6592 24.3962 58.7122 21.4492 55.0769 21.4492H8.48783C5.75261 21.4492 3.36359 23.2991 2.67887 25.9472L-0.312925 37.5179C-0.525124 38.3385 -0.632507 39.1828 -0.632507 40.0305V48.2265C-0.632507 51.922 2.36329 54.9178 6.05878 54.9178H57.5136C59.8032 54.9178 61.6592 53.0618 61.6592 50.7722V28.0315Z" fill="#55F793" fill-opacity="0.08"/>
</g>
<path d="M34.5637 18.8877H40.6909C41.1844 18.8877 41.4316 19.4844 41.0826 19.8334L33.1871 27.7289C32.9707 27.9453 32.9707 28.296 33.1871 28.5124L41.0826 36.4079C41.4316 36.7569 41.1844 37.3536 40.6909 37.3536H34.5637C34.4167 37.3536 34.2758 37.2953 34.1719 37.1914L25.493 28.5124C25.2766 28.296 25.2766 27.9453 25.493 27.7289L34.1719 19.05C34.2758 18.9461 34.4167 18.8877 34.5637 18.8877Z" fill="white"/>
</g>
<defs>
<filter id="filter0_f_126_168278" x="-37.1949" y="-15.1132" width="135.416" height="106.594" filterUnits="userSpaceOnUse" color-interpolation-filters="sRGB">
<feFlood flood-opacity="0" result="BackgroundImageFix"/>
<feBlend mode="normal" in="SourceGraphic" in2="BackgroundImageFix" result="shape"/>
<feGaussianBlur stdDeviation="18.2812" result="effect1_foregroundBlur_126_168278"/>
</filter>
<linearGradient id="paint0_linear_126_168278" x1="63.9274" y1="55.0837" x2="-1.57316" y2="55.0837" gradientUnits="userSpaceOnUse">
<stop stop-color="#153220"/>
<stop offset="1" stop-color="#251532" stop-opacity="0"/>
</linearGradient>
<linearGradient id="paint1_linear_126_168278" x1="64.3048" y1="55.0834" x2="-2.0603e-05" y2="55.0834" gradientUnits="userSpaceOnUse">
<stop stop-color="#7BFF90"/>
<stop offset="0.651042" stop-color="#7BCFFF"/>
<stop offset="1" stop-color="#9D7BFF"/>
</linearGradient>
</defs>
</svg>
