<svg width="84" height="80" viewBox="0 0 84 80" fill="none" xmlns="http://www.w3.org/2000/svg">
<path d="M26.1547 40L34.0773 26.2776L49.9226 26.2776L57.8453 40L49.9226 53.7224L34.0774 53.7224L26.1547 40Z" fill="black" stroke="white" stroke-width="2"/>
<g filter="url(#filter0_f_123_122662)">
<path d="M25.2887 40.5C25.11 40.1906 25.11 39.8094 25.2887 39.5L33.2113 25.7776C33.39 25.4682 33.7201 25.2776 34.0773 25.2776L49.9226 25.2776C50.2799 25.2776 50.61 25.4682 50.7887 25.7776L58.7113 39.5C58.89 39.8094 58.89 40.1906 58.7113 40.5L50.7887 54.2224C50.61 54.5318 50.2799 54.7224 49.9226 54.7224L34.0774 54.7224C33.7201 54.7224 33.39 54.5318 33.2113 54.2224L25.2887 40.5Z" fill="url(#paint0_angular_123_122662)"/>
</g>
<g filter="url(#filter1_d_123_122662)">
<path d="M31.2887 40.5C31.11 40.1906 31.11 39.8094 31.2887 39.5L36.2113 30.9737C36.39 30.6643 36.7201 30.4737 37.0773 30.4737L46.9226 30.4737C47.2799 30.4737 47.61 30.6643 47.7887 30.9737L52.7113 39.5C52.89 39.8094 52.89 40.1906 52.7113 40.5L47.7887 49.0263C47.61 49.3357 47.2799 49.5263 46.9226 49.5263L37.0774 49.5263C36.7201 49.5263 36.39 49.3357 36.2113 49.0263L31.2887 40.5Z" fill="url(#paint1_angular_123_122662)" shape-rendering="crispEdges"/>
</g>
<defs>
<filter id="filter0_f_123_122662" x="0.154785" y="0.277344" width="83.6904" height="79.4453" filterUnits="userSpaceOnUse" color-interpolation-filters="sRGB">
<feFlood flood-opacity="0" result="BackgroundImageFix"/>
<feBlend mode="normal" in="SourceGraphic" in2="BackgroundImageFix" result="shape"/>
<feGaussianBlur stdDeviation="12.5" result="effect1_foregroundBlur_123_122662"/>
</filter>
<filter id="filter1_d_123_122662" x="15.1548" y="14.4746" width="53.6904" height="51.0508" filterUnits="userSpaceOnUse" color-interpolation-filters="sRGB">
<feFlood flood-opacity="0" result="BackgroundImageFix"/>
<feColorMatrix in="SourceAlpha" type="matrix" values="0 0 0 0 0 0 0 0 0 0 0 0 0 0 0 0 0 0 127 0" result="hardAlpha"/>
<feOffset/>
<feGaussianBlur stdDeviation="8"/>
<feComposite in2="hardAlpha" operator="out"/>
<feColorMatrix type="matrix" values="0 0 0 0 0.5625 0 0 0 0 0.92125 0 0 0 0 1 0 0 0 1 0"/>
<feBlend mode="normal" in2="BackgroundImageFix" result="effect1_dropShadow_123_122662"/>
<feBlend mode="normal" in="SourceGraphic" in2="effect1_dropShadow_123_122662" result="shape"/>
</filter>
<radialGradient id="paint0_angular_123_122662" cx="0" cy="0" r="1" gradientUnits="userSpaceOnUse" gradientTransform="translate(40.5833 41.4167) rotate(-59.0362) scale(24.7815 32.3699)">
<stop stop-color="#C0FFCA" stop-opacity="0.78"/>
<stop offset="0.151042" stop-color="#40BAFF"/>
<stop offset="1" stop-color="#A687FF"/>
</radialGradient>
<radialGradient id="paint1_angular_123_122662" cx="0" cy="0" r="1" gradientUnits="userSpaceOnUse" gradientTransform="translate(41.0833 40.9167) rotate(-59.0362) scale(16.0351 20.9452)">
<stop stop-color="#C0FFE1" stop-opacity="0.78"/>
<stop offset="0.484375" stop-color="#46BCFF"/>
<stop offset="1" stop-color="#B174FF"/>
</radialGradient>
</defs>
</svg>
