<svg width="65" height="56" viewBox="0 0 65 56" fill="none" xmlns="http://www.w3.org/2000/svg">
<mask id="mask0_126_168266" style="mask-type:alpha" maskUnits="userSpaceOnUse" x="0" y="0" width="65" height="56">
<path fill-rule="evenodd" clip-rule="evenodd" d="M13.5417 0.916992C6.06281 0.916992 0 6.97982 0 14.4587V41.542C0 49.0209 6.0628 55.0837 13.5417 55.0837H25.7292H41.9792H51.4583C58.9372 55.0837 65 49.0209 65 41.542V37.4795V32.8017C65 29.0769 64.0398 25.4151 62.212 22.1697L54.1271 7.81366C51.7276 3.5531 47.2177 0.916992 42.3279 0.916992H41.9792H25.7292H13.5417Z" fill="white"/>
</mask>
<g mask="url(#mask0_126_168266)">
<path fill-rule="evenodd" clip-rule="evenodd" d="M13.5417 0.916992C6.06281 0.916992 0 6.97982 0 14.4587V41.542C0 49.0209 6.0628 55.0837 13.5417 55.0837H25.7292H41.9792H51.4583C58.9372 55.0837 65 49.0209 65 41.542V37.4795V32.8017C65 29.0769 64.0398 25.4151 62.212 22.1697L54.1271 7.81366C51.7276 3.5531 47.2177 0.916992 42.3279 0.916992H41.9792H25.7292H13.5417Z" fill="url(#paint0_linear_126_168266)" fill-opacity="0.2"/>
<path d="M62.212 22.1694L61.0321 22.8339L62.212 22.1694ZM54.1271 7.81333L55.307 7.14883L54.1271 7.81333ZM1.35415 14.4584C1.35415 7.72737 6.81068 2.27083 13.5417 2.27083V-0.4375C5.3149 -0.4375 -1.35419 6.2316 -1.35419 14.4584H1.35415ZM1.35415 41.5417V14.4584H-1.35419V41.5417H1.35415ZM13.5417 53.7292C6.81067 53.7292 1.35415 48.2727 1.35415 41.5417H-1.35419C-1.35419 49.7684 5.3149 56.4375 13.5417 56.4375V53.7292ZM25.7292 53.7292H13.5417V56.4375H25.7292V53.7292ZM41.9792 53.7292H25.7292V56.4375H41.9792V53.7292ZM41.9792 56.4375H51.4583V53.7292H41.9792V56.4375ZM51.4583 56.4375C59.6851 56.4375 66.3542 49.7684 66.3542 41.5417H63.6458C63.6458 48.2727 58.1893 53.7292 51.4583 53.7292V56.4375ZM66.3542 41.5417V37.4792H63.6458V41.5417H66.3542ZM66.3542 37.4792V32.8014H63.6458V37.4792H66.3542ZM66.3542 32.8014C66.3542 28.8438 65.3339 24.9532 63.3919 21.5049L61.0321 22.8339C62.7456 25.8765 63.6458 29.3094 63.6458 32.8014H66.3542ZM63.3919 21.5049L55.307 7.14883L52.9472 8.47783L61.0321 22.8339L63.3919 21.5049ZM55.307 7.14883C52.6676 2.46221 47.7066 -0.4375 42.3279 -0.4375V2.27083C46.7287 2.27083 50.7877 4.64332 52.9472 8.47783L55.307 7.14883ZM42.3279 -0.4375H41.9792V2.27083H42.3279V-0.4375ZM25.7292 2.27083H41.9792V-0.4375H25.7292V2.27083ZM13.5417 2.27083H25.7292V-0.4375H13.5417V2.27083Z" fill="url(#paint1_linear_126_168266)" fill-opacity="0.2"/>
<g filter="url(#filter0_f_126_168266)">
<path d="M3.33984 28.0315C3.33984 24.3962 6.28681 21.4492 9.92208 21.4492H56.5112C59.2464 21.4492 61.6354 23.2991 62.3201 25.9472L65.3119 37.5179C65.5241 38.3385 65.6315 39.1828 65.6315 40.0305V48.2265C65.6315 51.922 62.6357 54.9178 58.9402 54.9178H7.4854C5.19587 54.9178 3.33984 53.0618 3.33984 50.7722V28.0315Z" fill="#55F793" fill-opacity="0.08"/>
</g>
<path d="M30.4363 18.8877H24.3091C23.8156 18.8877 23.5684 19.4844 23.9174 19.8334L31.8129 27.7289C32.0293 27.9453 32.0293 28.296 31.8129 28.5124L23.9174 36.4079C23.5684 36.7569 23.8156 37.3536 24.3091 37.3536H30.4363C30.5833 37.3536 30.7242 37.2953 30.8281 37.1914L39.507 28.5124C39.7234 28.296 39.7234 27.9453 39.507 27.7289L30.8281 19.05C30.7242 18.9461 30.5833 18.8877 30.4363 18.8877Z" fill="white"/>
</g>
<defs>
<filter id="filter0_f_126_168266" x="-33.2226" y="-15.1132" width="135.416" height="106.594" filterUnits="userSpaceOnUse" color-interpolation-filters="sRGB">
<feFlood flood-opacity="0" result="BackgroundImageFix"/>
<feBlend mode="normal" in="SourceGraphic" in2="BackgroundImageFix" result="shape"/>
<feGaussianBlur stdDeviation="18.2812" result="effect1_foregroundBlur_126_168266"/>
</filter>
<linearGradient id="paint0_linear_126_168266" x1="1.07261" y1="55.0837" x2="66.5732" y2="55.0837" gradientUnits="userSpaceOnUse">
<stop stop-color="#153220"/>
<stop offset="1" stop-color="#251532" stop-opacity="0"/>
</linearGradient>
<linearGradient id="paint1_linear_126_168266" x1="0.69517" y1="55.0834" x2="65" y2="55.0834" gradientUnits="userSpaceOnUse">
<stop stop-color="#7BFF90"/>
<stop offset="0.651042" stop-color="#7BCFFF"/>
<stop offset="1" stop-color="#9D7BFF"/>
</linearGradient>
</defs>
</svg>
