<svg width="34" height="32" viewBox="0 0 34 32" fill="none" xmlns="http://www.w3.org/2000/svg">
<path d="M0.288674 16.5C0.110042 16.1906 0.110042 15.8094 0.288674 15.5L8.21132 1.77757C8.38996 1.46817 8.72008 1.27757 9.07735 1.27757L24.9226 1.27757C25.2799 1.27757 25.61 1.46817 25.7887 1.77757L33.7113 15.5C33.89 15.8094 33.89 16.1906 33.7113 16.5L25.7887 30.2224C25.61 30.5318 25.2799 30.7224 24.9226 30.7224L9.07735 30.7224C8.72008 30.7224 8.38996 30.5318 8.21132 30.2224L0.288674 16.5Z" fill="black"/>
<path d="M1.1547 16L9.07735 2.27757L24.9226 2.27757L32.8453 16L24.9226 29.7224L9.07735 29.7224L1.1547 16Z" stroke="white" stroke-opacity="0.5" stroke-width="2"/>
<path d="M6.28867 16.5C6.11004 16.1906 6.11004 15.8094 6.28867 15.5L11.2113 6.97372C11.39 6.66432 11.7201 6.47372 12.0773 6.47372L21.9226 6.47372C22.2799 6.47372 22.61 6.66432 22.7887 6.97372L27.7113 15.5C27.89 15.8094 27.89 16.1906 27.7113 16.5L22.7887 25.0263C22.61 25.3357 22.2799 25.5263 21.9226 25.5263L12.0774 25.5263C11.7201 25.5263 11.39 25.3357 11.2113 25.0263L6.28867 16.5Z" fill="url(#paint0_angular_123_122644)"/>
<defs>
<radialGradient id="paint0_angular_123_122644" cx="0" cy="0" r="1" gradientUnits="userSpaceOnUse" gradientTransform="translate(16.0833 16.9167) rotate(-59.0362) scale(16.0351 20.9452)">
<stop stop-color="#C0FFCA" stop-opacity="0.52"/>
<stop offset="0.489583" stop-color="#2998FF" stop-opacity="0.79"/>
<stop offset="1" stop-color="#7646FF" stop-opacity="0.9"/>
</radialGradient>
</defs>
</svg>
